<svg width="248" height="200" viewBox="0 0 248 200" fill="none" xmlns="http://www.w3.org/2000/svg">
<path d="M67.68 69.22L30.74 100L67.68 130.78C68.9051 131.784 69.9193 133.021 70.6642 134.418C71.409 135.816 71.8697 137.348 72.0197 138.925C72.1698 140.501 72.0062 142.092 71.5384 143.606C71.0705 145.119 70.3078 146.525 69.294 147.742C68.2803 148.959 67.0356 149.963 65.6318 150.697C64.228 151.43 62.6929 151.879 61.1149 152.016C59.537 152.154 57.9474 151.977 56.4379 151.497C54.9284 151.017 53.5289 150.243 52.32 149.22L4.32001 109.22C2.96812 108.094 1.88043 106.684 1.13398 105.091C0.387538 103.498 0.000610352 101.76 0.000610352 100C0.000610352 98.2405 0.387538 96.5025 1.13398 94.9092C1.88043 93.3159 2.96812 91.9062 4.32001 90.78L52.32 50.78C54.7687 48.7732 57.9113 47.8155 61.063 48.1154C64.2148 48.4153 67.1203 49.9486 69.1466 52.3812C71.1729 54.8138 72.1558 57.9486 71.8811 61.1026C71.6064 64.2567 70.0963 67.1744 67.68 69.22ZM243.68 90.78L195.68 50.78C194.471 49.7566 193.072 48.9826 191.562 48.5027C190.053 48.0228 188.463 47.8465 186.885 47.9839C185.307 48.1213 183.772 48.5698 182.368 49.3034C180.964 50.0371 179.72 51.0414 178.706 52.2584C177.692 53.4754 176.929 54.8811 176.462 56.3944C175.994 57.9076 175.83 59.4986 175.98 61.0754C176.13 62.6522 176.591 64.1837 177.336 65.5816C178.081 66.9794 179.095 68.216 180.32 69.22L217.26 100L180.32 130.78C179.095 131.784 178.081 133.021 177.336 134.418C176.591 135.816 176.13 137.348 175.98 138.925C175.83 140.501 175.994 142.092 176.462 143.606C176.929 145.119 177.692 146.525 178.706 147.742C179.72 148.959 180.964 149.963 182.368 150.697C183.772 151.43 185.307 151.879 186.885 152.016C188.463 152.154 190.053 151.977 191.562 151.497C193.072 151.017 194.471 150.243 195.68 149.22L243.68 109.22C245.032 108.094 246.12 106.684 246.866 105.091C247.612 103.498 247.999 101.76 247.999 100C247.999 98.2405 247.612 96.5025 246.866 94.9092C246.12 93.3159 245.032 91.9062 243.68 90.78ZM160.1 0.720022C158.619 0.181327 157.046 -0.0602651 155.471 0.00904399C153.896 0.0783531 152.351 0.457207 150.923 1.12396C149.494 1.79072 148.212 2.73231 147.147 3.89497C146.083 5.05762 145.258 6.41855 144.72 7.90002L80.72 183.9C79.6352 186.89 79.7821 190.189 81.1284 193.071C82.4748 195.953 84.9104 198.183 87.9 199.27C89.2125 199.755 90.6009 200.002 92 200C94.4638 200 96.868 199.243 98.886 197.829C100.904 196.416 102.438 194.416 103.28 192.1L167.28 16.1C167.819 14.6187 168.06 13.0458 167.991 11.4711C167.922 9.89647 167.543 8.35087 166.876 6.92264C166.209 5.49441 165.268 4.21152 164.105 3.14726C162.942 2.083 161.581 1.25822 160.1 0.720022Z" fill="black"/>
</svg>
