<svg width="81" height="81" viewBox="0 0 81 81" fill="none" xmlns="http://www.w3.org/2000/svg">
<path d="M68.4988 25.1606L50.78 7.44188C50.4274 7.08882 50.0087 6.80874 49.5477 6.61763C49.0868 6.42653 48.5927 6.32815 48.0938 6.32812H17.7188C16.0404 6.32812 14.4308 6.99484 13.2441 8.18159C12.0573 9.36834 11.3906 10.9779 11.3906 12.6562V68.3438C11.3906 70.0221 12.0573 71.6317 13.2441 72.8184C14.4308 74.0052 16.0404 74.6719 17.7188 74.6719H63.2812C64.9596 74.6719 66.5692 74.0052 67.7559 72.8184C68.9427 71.6317 69.6094 70.0221 69.6094 68.3438V27.8438C69.6093 26.8375 69.2099 25.8725 68.4988 25.1606ZM50.625 18.0352L57.9023 25.3125H50.625V18.0352ZM18.9844 67.0781V13.9219H43.0312V29.1094C43.0312 30.1164 43.4313 31.0821 44.1433 31.7942C44.8554 32.5062 45.8211 32.9062 46.8281 32.9062H62.0156V67.0781H18.9844Z" fill="black"/>
</svg>
