<svg width="55" height="55" viewBox="0 0 55 55" fill="none" xmlns="http://www.w3.org/2000/svg">
<path d="M9.16669 16.0417C9.16669 15.4339 9.40813 14.851 9.8379 14.4212C10.2677 13.9914 10.8506 13.75 11.4584 13.75H43.5417C44.1495 13.75 44.7324 13.9914 45.1621 14.4212C45.5919 14.851 45.8334 15.4339 45.8334 16.0417C45.8334 16.6495 45.5919 17.2323 45.1621 17.6621C44.7324 18.0919 44.1495 18.3333 43.5417 18.3333H11.4584C10.8506 18.3333 10.2677 18.0919 9.8379 17.6621C9.40813 17.2323 9.16669 16.6495 9.16669 16.0417ZM9.16669 27.5C9.16669 26.8922 9.40813 26.3093 9.8379 25.8795C10.2677 25.4498 10.8506 25.2083 11.4584 25.2083H43.5417C44.1495 25.2083 44.7324 25.4498 45.1621 25.8795C45.5919 26.3093 45.8334 26.8922 45.8334 27.5C45.8334 28.1078 45.5919 28.6907 45.1621 29.1205C44.7324 29.5502 44.1495 29.7917 43.5417 29.7917H11.4584C10.8506 29.7917 10.2677 29.5502 9.8379 29.1205C9.40813 28.6907 9.16669 28.1078 9.16669 27.5ZM9.16669 38.9583C9.16669 38.3505 9.40813 37.7677 9.8379 37.3379C10.2677 36.9081 10.8506 36.6667 11.4584 36.6667H43.5417C44.1495 36.6667 44.7324 36.9081 45.1621 37.3379C45.5919 37.7677 45.8334 38.3505 45.8334 38.9583C45.8334 39.5661 45.5919 40.149 45.1621 40.5788C44.7324 41.0086 44.1495 41.25 43.5417 41.25H11.4584C10.8506 41.25 10.2677 41.0086 9.8379 40.5788C9.40813 40.149 9.16669 39.5661 9.16669 38.9583Z" fill="black"/>
</svg>
