<svg width="56" height="216" viewBox="0 0 56 216" fill="none" xmlns="http://www.w3.org/2000/svg">
<path d="M56 108C56 113.538 54.3578 118.951 51.2812 123.556C48.2045 128.161 43.8315 131.749 38.7151 133.869C33.5988 135.988 27.969 136.542 22.5375 135.462C17.106 134.382 12.1169 131.715 8.20103 127.799C4.28516 123.883 1.61841 118.894 0.538025 113.463C-0.542361 108.031 0.0121319 102.401 2.13139 97.2849C4.25064 92.1686 7.83947 87.7955 12.444 84.7189C17.0486 81.6422 22.4621 80 28 80C35.4261 80 42.548 82.95 47.799 88.201C53.05 93.452 56 100.574 56 108ZM28 56C33.5379 56 38.9514 54.3578 43.556 51.2812C48.1606 48.2045 51.7494 43.8315 53.8686 38.7151C55.9879 33.5988 56.5424 27.969 55.462 22.5375C54.3816 17.106 51.7149 12.1169 47.799 8.20102C43.8831 4.28515 38.894 1.61841 33.4625 0.538025C28.0311 -0.542361 22.4012 0.0121319 17.2849 2.13139C12.1686 4.25064 7.79554 7.83947 4.71886 12.444C1.64218 17.0486 1.50825e-05 22.4621 1.50825e-05 28C1.50825e-05 35.4261 2.95001 42.548 8.20103 47.799C13.452 53.05 20.574 56 28 56ZM28 160C22.4621 160 17.0486 161.642 12.444 164.719C7.83947 167.796 4.25064 172.169 2.13139 177.285C0.0121319 182.401 -0.542361 188.031 0.538025 193.463C1.61841 198.894 4.28516 203.883 8.20103 207.799C12.1169 211.715 17.106 214.382 22.5375 215.462C27.969 216.542 33.5988 215.988 38.7151 213.869C43.8315 211.749 48.2045 208.161 51.2812 203.556C54.3578 198.951 56 193.538 56 188C56 180.574 53.05 173.452 47.799 168.201C42.548 162.95 35.4261 160 28 160Z" fill="black"/>
</svg>
